<?xml version="1.0" standalone="no"?>
<!DOCTYPE svg PUBLIC "-//W3C//DTD SVG 20010904//EN"
 "http://www.w3.org/TR/2001/REC-SVG-20010904/DTD/svg10.dtd">
<svg version="1.0" xmlns="http://www.w3.org/2000/svg"
 width="16.000000pt" height="16.000000pt" viewBox="0 0 16.000000 16.000000"
 preserveAspectRatio="xMidYMid meet">
<metadata>
Created by potrace 1.11, written by Peter Selinger 2001-2013
</metadata>
<g transform="translate(0.000000,16.000000) scale(0.004444,-0.004444)"
fill="#000000" stroke="none">
<path d="M5 3588 c-3 -7 -4 -816 -3 -1798 l3 -1785 1795 0 1795 0 0 1795 0
1795 -1793 3 c-1429 2 -1794 0 -1797 -10z m1709 -659 c37 -29 52 -62 77 -170
12 -52 26 -98 30 -103 5 -6 9 -18 9 -28 0 -57 204 -376 241 -378 9 0 36 11 61
25 118 66 359 84 592 44 161 -27 171 -36 109 -98 -21 -20 -47 -55 -57 -77 -10
-21 -23 -47 -27 -56 -5 -10 -18 -46 -30 -80 -60 -178 -154 -320 -256 -391
l-40 -28 5 -97 c6 -146 -27 -304 -91 -422 -112 -210 -317 -349 -582 -395 -111
-19 -146 -19 -215 -1 -30 7 -72 17 -94 20 -73 13 -23 21 142 22 143 1 177 4
232 23 129 42 223 103 309 198 111 123 154 243 155 438 1 162 -2 171 -61 180
-104 15 -174 65 -137 96 8 6 14 18 14 26 0 7 8 26 19 41 10 15 35 53 56 84 42
66 167 187 232 224 48 29 53 40 23 49 -44 14 -162 -24 -250 -81 -63 -41 -167
-141 -202 -194 -11 -18 -19 -22 -27 -15 -18 18 -25 158 -11 225 l13 60 -50 53
c-67 71 -154 190 -199 273 -46 85 -41 79 -59 64 -21 -17 -19 -46 5 -63 37 -26
86 -102 104 -161 18 -55 18 -159 0 -187 -8 -14 -44 -11 -44 4 0 14 -66 77 -80
77 -5 0 -13 6 -17 13 -23 37 -203 97 -203 68 0 -5 31 -39 69 -76 88 -85 163
-193 150 -217 -12 -22 -70 -38 -142 -38 -66 0 -110 16 -150 54 -39 37 -58 28
-111 -52 -119 -179 -184 -402 -157 -535 25 -120 73 -190 174 -250 112 -68 248
-69 350 -4 89 57 146 138 193 272 24 72 25 269 0 350 -26 86 -101 227 -168
316 -32 43 -58 82 -58 88 0 24 41 8 89 -35 101 -91 209 -273 256 -432 17 -57
31 -66 41 -25 18 71 124 224 207 299 48 43 113 81 122 72 3 -3 -18 -31 -47
-62 -64 -69 -128 -164 -128 -188 0 -9 -4 -19 -9 -22 -5 -3 -12 -18 -15 -33 -4
-16 -13 -41 -20 -58 -29 -64 -37 -84 -72 -190 -80 -243 -135 -347 -234 -445
-146 -145 -317 -183 -512 -115 -163 57 -260 144 -338 305 -88 180 -77 422 30
654 45 97 113 207 188 305 64 84 64 84 53 123 -7 23 -33 61 -62 91 -27 28 -49
54 -49 57 0 12 117 40 216 52 l96 12 32 56 c41 71 88 186 112 274 24 94 64
136 126 136 31 0 54 -7 72 -21z"/>
</g>
</svg>
